<svg xmlns="http://www.w3.org/2000/svg" viewBox="0 0 1000 397.61"><defs><style>.cls-1{fill:#f41cb2;}.cls-2{fill:#5d1193;}.cls-3{fill:#21b510;}.cls-4{fill:#2b6ce0;}.cls-5{fill:#eff41c;}.cls-6{opacity:0.2;}.cls-7{fill:#fff;}</style></defs><title>background</title><g id="Layer_1" data-name="Layer 1"><rect class="cls-1" y="-1.19" width="1000" height="400"/></g><g id="Layer_2" data-name="Layer 2"><rect class="cls-2" y="135.81" width="1000" height="18"/><rect class="cls-2" y="307.81" width="1000" height="52"/><rect class="cls-2" y="215.81" width="1000" height="9"/><rect class="cls-2" y="9.81" width="1000" height="18"/></g><g id="Layer_3" data-name="Layer 3"><rect class="cls-3" x="497" y="-298.19" width="6" height="1000" transform="translate(701.81 -298.19) rotate(90)"/><rect class="cls-3" x="479.5" y="-442.69" width="41" height="1000" transform="translate(557.31 -442.69) rotate(90)"/><rect class="cls-3" x="482" y="-257.19" width="36" height="1000" transform="translate(742.81 -257.19) rotate(90)"/></g><g id="Layer_4" data-name="Layer 4"><rect class="cls-4" x="484" y="-380.19" width="32" height="1000" transform="translate(619.81 -380.19) rotate(90)"/><rect class="cls-4" x="484" y="-117.19" width="32" height="1000" transform="translate(882.81 -117.19) rotate(90)"/></g><g id="Layer_5" data-name="Layer 5"><rect class="cls-5" x="491.5" y="-323.69" width="17" height="1000" transform="translate(676.31 -323.69) rotate(90)"/><rect class="cls-5" x="487.5" y="-204.69" width="25" height="1000" transform="translate(795.31 -204.69) rotate(90)"/><rect class="cls-5" x="490.5" y="-412.69" width="19" height="1000" transform="translate(587.31 -412.69) rotate(90)"/><g class="cls-6"><rect class="cls-7" y="-2.2" width="1000" height="401.01"/></g></g></svg>