<svg xmlns="http://www.w3.org/2000/svg" viewBox="0 0 404.98 739.46"><defs><style>.cls-1{fill:#8a9fd2;}.cls-2,.cls-3{fill:none;stroke:#1d1d1b;stroke-miterlimit:10;}.cls-2{stroke-width:4px;}.cls-3{stroke-width:2px;}.cls-4{fill:#1d1d1b;}.cls-5{fill:#292e69;}.cls-6{fill:#fff;}</style></defs><title>boredom</title><g id="Layer_2" data-name="Layer 2"><path class="cls-1" d="M184.72,97.69c-34.87,4.5-63.6,29.6-70.22,63.79l-49.26,147L24.81,451.74c-13.27,30.16-8.6,65-8.31,97.24.21,24.26,5.15,44,11.53,66.2,24.95,87,137.65,80,198.49,76.3,103.2-6.22,152.06-32.18,156-121.49,2-46.6,9.7-95.26-10.18-136.63l-44.15-128-62.5-153.56c-9.6-36.48-42.88-57.91-78.36-54.36Q186,97.53,184.72,97.69Z"/><ellipse class="cls-1" cx="144.21" cy="714.85" rx="59.25" ry="14.25"/><ellipse class="cls-1" cx="262.71" cy="714.85" rx="59.25" ry="14.25"/><path class="cls-2" d="M157.83,298.32s23.5-18.9,40.5-19.9,38.5,3.5,38.5,3.5"/><path class="cls-3" d="M183.18,234.18s13.25-48.25-19.25-47.5-23.5,47.5-23.5,47.5Z"/><ellipse class="cls-4" cx="162.99" cy="224.68" rx="11" ry="9.5"/><path class="cls-3" d="M140.21,209.43s-2.28,6,19.47,5.74,26.15-2.87,26.15-2.87"/><path class="cls-3" d="M250.18,234.18s13.25-48.25-19.25-47.5-23.5,47.5-23.5,47.5Z"/><ellipse class="cls-4" cx="229.99" cy="224.68" rx="11" ry="9.5"/><path class="cls-3" d="M207.21,209.43s-2.28,6,19.47,5.74,26.15-2.87,26.15-2.87"/></g><g id="Layer_4" data-name="Layer 4"><path class="cls-5" d="M103,135.43s30,30.67,83.33,30.67,94-15.33,94-15.33,11.33,4.67-3.33-40L262.3,66.09S347,87.43,349.63,108.76s-4-86-96.67-99.33S103,132.09,103,132.09Z"/><circle class="cls-6" cx="349.63" cy="108.76" r="21"/></g><g id="Layer_3" data-name="Layer 3"><path class="cls-5" d="M375.46,430.22l-47.31-124.9c-28.7,6.31-86.49,17.56-142,19.7-50.65,1.95-95.6-8.75-120.9-16.5L21.17,451.15A312.62,312.62,0,0,0,7,546.12c.21,24.26,6.78,47.83,13.07,70.09,23,81.48,159.61,91.07,203.68,87.88,103.12-7.45,170-46.46,173.91-135.78A347,347,0,0,0,375.46,430.22Z"/><path class="cls-1" d="M111.49,459.43s31.33-5,68,8,47.67,21.67,54.67,27,2.57,26.82-19.67,13c-22.9-14.23-101.9-23.19-103-19.67C111.49,487.76,113.66,459.74,111.49,459.43Z"/><path class="cls-1" d="M283.36,433.62s-31.46,4.11-62.92,27S180.89,494.94,175.7,502s5.16,26.45,22.55,6.87c17.91-20.16,91.1-51.2,93.16-48.13C291.41,460.79,281.37,434.54,283.36,433.62Z"/></g></svg>