<svg xmlns="http://www.w3.org/2000/svg" viewBox="0 0 1000 397.81"><defs><style>.cls-1{fill:#f41cb2;}.cls-2{fill:#2b6ce0;}.cls-3{fill:#21b510;}.cls-4{fill:#eff41c;}.cls-5{fill:#5d1193;}</style></defs><title>countdown</title><g id="Layer_1" data-name="Layer 1"><rect y="-0.19" width="1000" height="398"/></g><g id="Layer_2" data-name="Layer 2"><path class="cls-1" d="M195.53,84.78l.63,68.22a56.94,56.94,0,0,0-9.45-.44,90.28,90.28,0,0,0-9.27.83,80.47,80.47,0,0,0-21.93,6.27A56.23,56.23,0,0,0,138,171.78a46.91,46.91,0,0,0-10.76,17.72q-3.49,10.21-1.66,23.06a36,36,0,0,0,4.65,13.91,26.81,26.81,0,0,0,8.8,8.95,31.24,31.24,0,0,0,12.1,4.27,51.2,51.2,0,0,0,14.55-.13,62.91,62.91,0,0,0,12-3,105.32,105.32,0,0,0,12.06-5.11A120.17,120.17,0,0,0,201.21,225q5.49-3.53,10-7.09l4.25,75.48a101.06,101.06,0,0,1-12.61,7.54q-6.87,3.49-14.23,6.39a141.12,141.12,0,0,1-14.84,4.94,119,119,0,0,1-14.46,3,95,95,0,0,1-96.47-46.1A99.12,99.12,0,0,1,50.05,232a167,167,0,0,1,.5-52.28,126.48,126.48,0,0,1,16.86-45.37,108.35,108.35,0,0,1,33.31-33.87q20.8-13.64,49.84-17.77a151.09,151.09,0,0,1,22.7-1.45A75,75,0,0,1,195.53,84.78Z"/><path class="cls-2" d="M284.41,150.3a45.42,45.42,0,0,1-1.32,11,43,43,0,0,1-3.79,9.93,41.11,41.11,0,0,1-6,8.49,38.28,38.28,0,0,1-8,6.61,38.62,38.62,0,0,1-20.64,5.83,39.38,39.38,0,0,1-10.74-1.44,40.81,40.81,0,0,1-9.55-4,38.43,38.43,0,0,1-8.05-6.26,39,39,0,0,1-6.14-8.14,41.94,41.94,0,0,1-3.95-9.62,40.3,40.3,0,0,1-1.41-10.71A43.79,43.79,0,0,1,210,131.38a42.57,42.57,0,0,1,6-8.52,39.44,39.44,0,0,1,7.86-6.7,37.73,37.73,0,0,1,9.43-4.39,36.12,36.12,0,0,1,10.71-1.57A46.69,46.69,0,0,1,260.51,113a35.1,35.1,0,0,1,21,20.71A45,45,0,0,1,284.41,150.3Zm-27.82,1.63a17.64,17.64,0,0,0-.78-5.23,14.35,14.35,0,0,0-2.29-4.51,11.72,11.72,0,0,0-3.73-3.2,10.43,10.43,0,0,0-5.11-1.22,12.47,12.47,0,0,0-5.26,1.07,12,12,0,0,0-4,2.91,12.78,12.78,0,0,0-2.54,4.32,15.54,15.54,0,0,0-.88,5.23,19.08,19.08,0,0,0,.75,5.26,15.63,15.63,0,0,0,2.26,4.76,12,12,0,0,0,3.73,3.45,10,10,0,0,0,5.17,1.32,11.81,11.81,0,0,0,5.29-1.16,11.94,11.94,0,0,0,4-3.13,14.34,14.34,0,0,0,2.51-4.54A16.37,16.37,0,0,0,256.59,151.93Z"/><path class="cls-3" d="M344.18,231.84q-1.09,4.51-2.83,9.82t-4.11,10.86q-2.38,5.55-5.37,11.11a86.28,86.28,0,0,1-6.63,10.48,69.25,69.25,0,0,1-7.87,9,41.6,41.6,0,0,1-9.08,6.63A32.1,32.1,0,0,1,298,293.15a29.24,29.24,0,0,1-11.45-.61,31.24,31.24,0,0,1-11.72-5.25,28.36,28.36,0,0,1-7.43-8.31,33.56,33.56,0,0,1-3.91-10.49,58.14,58.14,0,0,1-1.07-11.8,85.78,85.78,0,0,1,1-12.2q.93-6.12,2.28-11.66a175.24,175.24,0,0,1,5-16.81q2.91-8.29,6.54-16.37l28.23,8q-4,9.16-7.48,18.52a163.25,163.25,0,0,0-5.88,19.11q-.25,1-.65,3.1t-.77,4.65q-.37,2.59-.55,5.35a29.35,29.35,0,0,0,.08,5.14,12.8,12.8,0,0,0,1,4.06,3.42,3.42,0,0,0,2.31,2,4.19,4.19,0,0,0,3.57-.91,16.05,16.05,0,0,0,3.55-3.88,46.42,46.42,0,0,0,3.42-6q1.68-3.46,3.18-7.29t2.8-7.7q1.29-3.88,2.33-7.23t1.73-6q.69-2.6,1-3.88,1.15-4.75,2.14-9.5t1.82-9.52l28.5,6.9Q346.27,223.2,344.18,231.84Z"/><path class="cls-4" d="M394.29,115l10.18,75.54-28.4,8.11-23-37.12,5.29,41.27-24.82,4.7-12.81-78.58L348,122.34l26.59,36.1-6.21-37.67Z"/><path class="cls-5" d="M574.48,90.25l-1.43,60.61-42.6,1.72L519.59,288.1l-60.33,3.15.29-135.52L416.94,158l1.72-67.48Z"/><path class="cls-3" d="M617.11,223a51.77,51.77,0,0,1-3.74,15.53,43,43,0,0,1-7.46,11.88,42.05,42.05,0,0,1-10.47,8.47,55,55,0,0,1-12.78,5.3,71.94,71.94,0,0,1-14.42,2.4,95.36,95.36,0,0,1-15.43-.24q-2.93-.28-5.72-.7t-5.69-1l9.71-83.53a78.79,78.79,0,0,1,14.42-1.74,117.32,117.32,0,0,1,14.52.47,48.53,48.53,0,0,1,16.15,4.24,37.18,37.18,0,0,1,12.17,9,35,35,0,0,1,7.28,13.15A43,43,0,0,1,617.11,223Zm-25.95,1.56a24.85,24.85,0,0,0-.1-6.55,15.54,15.54,0,0,0-2-5.76,13.44,13.44,0,0,0-4.15-4.3,14.84,14.84,0,0,0-6.4-2.21l-6.18,38.43a17.76,17.76,0,0,0,7-1.82,20.73,20.73,0,0,0,5.72-4.18,21.47,21.47,0,0,0,4-5.85,23.17,23.17,0,0,0,2-6.89Z"/><path class="cls-5" d="M672.36,138.81a38.54,38.54,0,0,1-1.12,9.33,36.52,36.52,0,0,1-3.22,8.43,34.89,34.89,0,0,1-5.1,7.2,32.49,32.49,0,0,1-6.75,5.61,32.77,32.77,0,0,1-17.52,4.94,33.42,33.42,0,0,1-9.12-1.22,34.63,34.63,0,0,1-8.11-3.43,32.61,32.61,0,0,1-6.83-5.32,33.06,33.06,0,0,1-5.21-6.91,35.59,35.59,0,0,1-3.35-8.16,34.2,34.2,0,0,1-1.2-9.09,37.16,37.16,0,0,1,4.33-17.44,36.12,36.12,0,0,1,5.08-7.23,33.47,33.47,0,0,1,6.67-5.69,32,32,0,0,1,8-3.72,30.66,30.66,0,0,1,9.09-1.33,39.62,39.62,0,0,1,14.06,2.39,29.79,29.79,0,0,1,17.81,17.57A38.21,38.21,0,0,1,672.36,138.81Zm-23.6,1.38a15,15,0,0,0-.66-4.44,12.18,12.18,0,0,0-1.94-3.83,10,10,0,0,0-3.16-2.71,8.85,8.85,0,0,0-4.33-1,10.58,10.58,0,0,0-4.47.9,10.22,10.22,0,0,0-3.38,2.47,10.84,10.84,0,0,0-2.15,3.67,13.19,13.19,0,0,0-.74,4.44,16.19,16.19,0,0,0,.64,4.47,13.27,13.27,0,0,0,1.91,4,10.17,10.17,0,0,0,3.16,2.92,8.45,8.45,0,0,0,4.39,1.12,10,10,0,0,0,4.49-1,10.14,10.14,0,0,0,3.38-2.66,12.17,12.17,0,0,0,2.13-3.85A13.89,13.89,0,0,0,648.76,140.2Z"/><path class="cls-1" d="M768.53,187.26l-21.84,78.3-32.74-2.75-2.67-42-11,37.57-32.79-2.29-5.31-80,28.79.47.73,48.34L704.38,178l22.43,2.36,3.89,49.26,9.68-47.83Z"/><path class="cls-2" d="M952.38,148.86l-40.2,147.2-58.69-7.21L840,202.46l-22.45,80.22L768.16,272l37.72-154.87,55.48,9.27,20.85,87.31,18-74.3Z"/></g></svg>