<svg xmlns="http://www.w3.org/2000/svg" viewBox="0 0 1000 397.61"><defs><style>.cls-1{fill:#f41cb2;}.cls-2{fill:#eff41c;}.cls-3{fill:#2b6ce0;}.cls-4{fill:#21b510;}.cls-5{fill:#5d1193;}</style></defs><title>em_bkgrd</title><g id="Layer_1" data-name="Layer 1"><rect y="-0.36" width="1000" height="398"/></g><g id="Layer_2" data-name="Layer 2"><path class="cls-1" d="M201.09,73.94q.79,13.11,1.69,25.93t1.42,26l-58.3,10.37.79,17.61,41.25-5.15L190.25,192l-41.35,6.57L150,218.91l34.33-4.29,24.36-3q1.07,15.33,2,30.46t2.17,30.3L94,290,73.48,89.87Z"/><path class="cls-2" d="M328.39,110.68l-21.23,76.75-24.38-4,8.84-41-17.87,30.76-9.32-2-2.15-31.32-7.33,34.31-24.63-4.41,16.46-73,27.45,4.67,3.43,37.35,22.23-34.16Z"/><path class="cls-3" d="M358.18,232.8a38.33,38.33,0,0,1-1.11,9.28,36.3,36.3,0,0,1-3.2,8.38,34.72,34.72,0,0,1-5.07,7.16,32.3,32.3,0,0,1-6.71,5.58,32.58,32.58,0,0,1-17.42,4.92,33.2,33.2,0,0,1-9.07-1.22,34.42,34.42,0,0,1-8.06-3.41,32.38,32.38,0,0,1-6.79-5.29,32.85,32.85,0,0,1-5.18-6.87,35.38,35.38,0,0,1-3.33-8.11,34,34,0,0,1-1.19-9,36.95,36.95,0,0,1,4.31-17.34,35.91,35.91,0,0,1,5-7.19A33.26,33.26,0,0,1,307,204a31.83,31.83,0,0,1,8-3.7,30.51,30.51,0,0,1,9-1.32,39.4,39.4,0,0,1,14,2.38,29.62,29.62,0,0,1,17.71,17.47A38,38,0,0,1,358.18,232.8Zm-23.47,1.37a14.89,14.89,0,0,0-.66-4.41,12.13,12.13,0,0,0-1.93-3.81,9.9,9.9,0,0,0-3.15-2.7,8.8,8.8,0,0,0-4.31-1,10.52,10.52,0,0,0-4.44.9,10.17,10.17,0,0,0-3.36,2.46,10.78,10.78,0,0,0-2.14,3.65,13.1,13.1,0,0,0-.74,4.41,16.1,16.1,0,0,0,.63,4.44,13.18,13.18,0,0,0,1.9,4,10.11,10.11,0,0,0,3.15,2.91,8.4,8.4,0,0,0,4.36,1.11,10,10,0,0,0,4.47-1,10.09,10.09,0,0,0,3.36-2.64,12.11,12.11,0,0,0,2.11-3.83A13.81,13.81,0,0,0,334.71,234.18Z"/><path class="cls-4" d="M455.11,142.64l4.32,37.21-25.92,4.7,5,83.86-36.64,7.1-11.44-82.95-25.87,5.05-4.73-41.43Z"/><path class="cls-5" d="M559,70.16,541.19,290.24,473,293.79V74.68Z"/><path class="cls-1" d="M669,139a52,52,0,0,1-1.51,12.59A49.27,49.27,0,0,1,663.19,163a47.12,47.12,0,0,1-6.89,9.72,43.84,43.84,0,0,1-9.11,7.57A44.22,44.22,0,0,1,623.55,187a45.06,45.06,0,0,1-12.3-1.65,46.72,46.72,0,0,1-10.94-4.63,44,44,0,0,1-9.22-7.17,44.58,44.58,0,0,1-7-9.33,48,48,0,0,1-4.52-11,46.14,46.14,0,0,1-1.61-12.27,50.14,50.14,0,0,1,5.85-23.53,48.73,48.73,0,0,1,6.85-9.76,45.14,45.14,0,0,1,9-7.68,43.2,43.2,0,0,1,10.8-5,41.4,41.4,0,0,1,12.27-1.79,53.47,53.47,0,0,1,19,3.23,40.2,40.2,0,0,1,24,23.71A51.56,51.56,0,0,1,669,139Zm-31.85,1.87a20.2,20.2,0,0,0-.9-6,16.46,16.46,0,0,0-2.62-5.17,13.43,13.43,0,0,0-4.27-3.66,12,12,0,0,0-5.85-1.4,14.27,14.27,0,0,0-6,1.22,13.8,13.8,0,0,0-4.56,3.34,14.63,14.63,0,0,0-2.91,5,17.78,17.78,0,0,0-1,6,21.85,21.85,0,0,0,.86,6,17.89,17.89,0,0,0,2.58,5.45,13.73,13.73,0,0,0,4.27,3.95,11.4,11.4,0,0,0,5.92,1.51,13.51,13.51,0,0,0,6.06-1.33,13.69,13.69,0,0,0,4.56-3.59,16.43,16.43,0,0,0,2.87-5.2A18.74,18.74,0,0,0,637.19,140.91Z"/><path class="cls-4" d="M751.64,171.07l6.95,88.25-33.45,7.59-24.31-44.52,3.49,48.2-29.08,3.85-9.81-91.94,32.11-5.83,28.52,43.57-4.78-44.08Z"/><path class="cls-3" d="M924,261.53q-2.85,19.29-11.66,32.73a67.94,67.94,0,0,1-21.84,21.31,79.28,79.28,0,0,1-29.29,10.35,114.44,114.44,0,0,1-34.14-.15,71.07,71.07,0,0,1-14.87-4.06q-8-3-16-7t-15.39-8.31q-7.35-4.32-13-8l14.75-57.09a99.94,99.94,0,0,0,24.93,14.83,116.46,116.46,0,0,0,28.1,8q2.67.39,6.51.74a30.8,30.8,0,0,0,7.44-.2,15.78,15.78,0,0,0,6.31-2.31,7.73,7.73,0,0,0,3.29-5.7,6.73,6.73,0,0,0-1-4.82,12.8,12.8,0,0,0-3.91-3.74,27.37,27.37,0,0,0-5.78-2.72q-3.29-1.13-6.48-1.89t-6-1.17l-4.51-.66A56.32,56.32,0,0,1,810,234.07a50.62,50.62,0,0,1-15.3-14.27,54,54,0,0,1-8.41-19.51,63.24,63.24,0,0,1-.63-23,65.53,65.53,0,0,1,11.08-28.79,70.1,70.1,0,0,1,21.18-19.75,81.91,81.91,0,0,1,27.78-10.36,93.56,93.56,0,0,1,30.72-.5q6.9,1,14.15,2.59a140.85,140.85,0,0,1,14.31,3.91,139.34,139.34,0,0,1,13.67,5.33,85,85,0,0,1,12.37,6.86l-13.78,56.37a174.23,174.23,0,0,0-19.26-8.38,101.52,101.52,0,0,0-20.16-5.2q-1.83-.27-4.73-.63t-6.12-.47a63.47,63.47,0,0,0-6.56.11,27.35,27.35,0,0,0-6.05,1,11.24,11.24,0,0,0-4.55,2.57,7.35,7.35,0,0,0-.51,9.78,15.4,15.4,0,0,0,5.2,3.79,40.13,40.13,0,0,0,7.38,2.6q4.09,1,8.16,1.71t7.6,1.12A41.93,41.93,0,0,1,883.3,202a58.08,58.08,0,0,1,19.57,7.78,47.55,47.55,0,0,1,13.68,13.09,46.39,46.39,0,0,1,7.2,17.53A62.26,62.26,0,0,1,924,261.53Z"/></g></svg>