<svg xmlns="http://www.w3.org/2000/svg" viewBox="0 0 246 587"><defs><style>.cls-1{fill:#7f98dd;}.cls-2,.cls-3{fill:#8d1ec1;}.cls-2,.cls-5,.cls-6,.cls-7{stroke:#000;stroke-miterlimit:10;}.cls-2{stroke-width:0.25px;}.cls-4{fill:#fff;}.cls-6,.cls-7{fill:none;}.cls-6{stroke-width:5px;}.cls-7{stroke-width:4px;}.cls-8{fill:#229ad6;}</style></defs><title>embarrassed</title><g id="Body"><path class="cls-1" d="M141.71,340.31a1482.25,1482.25,0,0,1,3.88,227.16c-.18,2.95-.22,5-1.22,7-.68,1.36-3.15,3.7-5,3.5-3.37-.36-4.79-4.88-5.24-8-1.69-11.69-4-22.76-5.66-34.46-.93,12.37-.91,26.61-2.09,39-.3,3.16-7.17,5.69-8,1-.54-3-1.39-8.35-2-13-6.29-47.86-4.44-95.87-1.54-144l4.6-76.38C125.64,337.19,134.9,336.31,141.71,340.31Z"/><path class="cls-2" d="M147.37,434.5l1,28-18,17s-10-4-9-12a11.39,11.39,0,0,1,5.4-8.35,27.39,27.39,0,0,0,7.35-6.73Z"/><path class="cls-2" d="M127.37,460.5l-13-26-2,30,10,15s5,4,8,0S127.37,460.5,127.37,460.5Z"/></g><g id="Face"><path class="cls-3" d="M130.26,11.15h0A52.75,52.75,0,0,1,183,63.9V304.75a39.75,39.75,0,0,1-39.75,39.75h-26a39.75,39.75,0,0,1-39.75-39.75V63.9a52.75,52.75,0,0,1,52.75-52.75Z"/><ellipse class="cls-4" cx="90.26" cy="158" rx="40" ry="53.5"/><ellipse class="cls-5" cx="120.76" cy="161.5" rx="9.5" ry="24"/><ellipse class="cls-4" cx="170.26" cy="158" rx="40" ry="53.5"/><ellipse class="cls-5" cx="200.76" cy="161.5" rx="9.5" ry="24"/><path class="cls-6" d="M62.76,89.5s7-32,27-33,30,33,30,33"/><path class="cls-6" d="M140.76,89.5s7-32,27-33,30,33,30,33"/><line class="cls-7" x1="100.76" y1="285.5" x2="159.76" y2="286.5"/></g><g id="Sweat"><path class="cls-8" d="M92,19.33l-13.75.62c-4.52.2-9.36,3.63-10.4,7.63a4.36,4.36,0,0,0,2.63,5.57c4.23,2,10.13.17,13.38-3.83Z"/><path class="cls-8" d="M57,56.48,47.71,66.85c-3.06,3.41-5.15,9.31-4.4,12.87.41,2,1.51,3.1,3.88,2,3.66-1.68,7.08-7.2,7.87-12.36Z"/><path class="cls-8" d="M31.34,110.92,19,125c-4.05,4.63-7.35,12.48-7,17.11.2,2.54,1.3,4,4.21,2.45,4.5-2.39,9.29-9.8,11-16.62Z"/><path class="cls-8" d="M204.28,57.77l2.15,15.78c.71,5.18,4.82,10.84,9.12,12.17,2.36.72,4.52.27,5.55-2.82,1.6-4.78-.92-11.59-5.47-15.46Z"/><path class="cls-8" d="M219.94,102.26l.41,13.77c.14,4.52,2.69,10.15,5.7,12.15,1.65,1.1,3.24,1.16,4.21-1.25,1.5-3.71.17-10-2.83-14.18Z"/><path class="cls-8" d="M168.21,14.35l8.72,11.43c2.86,3.75,8.67,5.1,12.71,2.66a6.36,6.36,0,0,0,3.2-6.94,10.3,10.3,0,0,0-11.24-8.43Z"/></g></svg>