<svg xmlns="http://www.w3.org/2000/svg" viewBox="0 0 413.98 674.97"><defs><style>.cls-1{fill:#e84632;}.cls-2{fill:#f5a821;}.cls-3{fill:none;stroke:#1d1d1b;stroke-miterlimit:10;stroke-width:2px;}.cls-4{fill:#fff;}</style></defs><title>excited</title><g id="Layer_3" data-name="Layer 3"><polygon class="cls-1" points="228.03 315.45 182.03 315.45 182.03 433.51 116.03 361.51 93.03 390.51 178.03 486.51 178.03 541.51 116.03 644.51 146.56 667.47 205.03 564.51 263.5 667.47 294.04 644.51 232.03 541.51 232.03 486.51 317.04 390.51 294.04 361.51 228.03 433.51 228.03 315.45"/></g><g id="Face"><path class="cls-2" d="M377.85,17.64H32.22a24.5,24.5,0,0,0-21.6,36.05c.25.46.53.91.82,1.35l176.9,270a20,20,0,0,0,33.39,0L398.63,55c.29-.44.57-.89.82-1.35A24.5,24.5,0,0,0,377.85,17.64Z"/><path class="cls-3" d="M220.6,116.27s-5.48-63,35.62-63,39.73,63,39.73,63"/><path class="cls-3" d="M114.36,116.27s-5.48-63,35.62-63,39.73,63,39.73,63"/><path class="cls-4" d="M105.23,163.12a.36.36,0,0,0-.56.45c8,15.05,58,105.92,99,109.81C257,278.44,310.94,165.93,305,161.51c-1.9-1.46-38.68,42.5-96.56,43.36C152.86,205.7,113.59,171.15,105.23,163.12Z"/></g></svg>