<svg xmlns="http://www.w3.org/2000/svg" viewBox="0 0 374.98 647.97"><defs><style>.cls-1{fill:#126c30;}.cls-2,.cls-7{fill:none;stroke:#1d1d1b;stroke-miterlimit:10;}.cls-2{stroke-width:3px;}.cls-3{fill:#144420;}.cls-4{fill:#fff;}.cls-5{fill:#1d1d1b;}.cls-6{fill:#942b19;}.cls-7{stroke-width:2px;}</style></defs><title>jealousy</title><g id="Layer_2" data-name="Layer 2"><rect class="cls-1" x="13.67" y="20.68" width="344.93" height="257.97" rx="45.65" ry="45.65"/><path class="cls-2" d="M206.1,68.56s-7.65-59,37.53-59.5,39.62,59.5,39.62,59.5"/><path class="cls-2" d="M167.81,70s-23-25.18-40-37.25S88.81,16,88.81,16"/><path class="cls-2" d="M128.31,256s26.5-17.5,47-22.5,45.5-13.5,68.5-15"/><polyline class="cls-2" points="167.81 165.56 204.31 186.06 167.81 211.06"/><path class="cls-3" d="M210.29,145.51s-8.5-70,33-69.5,35.5,69.5,35.5,69.5Z"/><path class="cls-4" d="M210.29,145.51s2-14,33-15,35.5,15,35.5,15S268.87,158,244.33,158,210.29,145.51,210.29,145.51Z"/><path class="cls-5" d="M278.78,145.36c.59,1.13-14,15.35-39.5,12.5-6.44-.72-8.75-28.52,10-27.47C278.78,132,278.78,145.36,278.78,145.36Z"/><path class="cls-3" d="M93.75,145.51s-8.5-70,33-69.5,35.5,69.5,35.5,69.5Z"/><path class="cls-4" d="M93.75,145.51s2-14,33-15,35.5,15,35.5,15S152.33,158,127.79,158,93.75,145.51,93.75,145.51Z"/><path class="cls-5" d="M162.24,145.36c.4,1-14.29,15.14-39.5,12.5-6.45-.67-8.75-28.52,10-27.47C162.24,132,162.24,145.36,162.24,145.36Z"/></g><g id="Layer_3" data-name="Layer 3"><path class="cls-6" d="M116.64,278.65h139a0,0,0,0,1,0,0v325.7a29.3,29.3,0,0,1-29.3,29.3h-80.4a29.3,29.3,0,0,1-29.3-29.3V278.65A0,0,0,0,1,116.64,278.65Z"/><path class="cls-6" d="M89.92,337.51h26.72a0,0,0,0,1,0,0V456.15a0,0,0,0,1,0,0H89.92a18.82,18.82,0,0,1-18.82-18.82v-81A18.82,18.82,0,0,1,89.92,337.51Z"/><path class="cls-6" d="M274.46,337.51h26.72a0,0,0,0,1,0,0V456.15a0,0,0,0,1,0,0H274.46a18.82,18.82,0,0,1-18.82-18.82v-81a18.82,18.82,0,0,1,18.82-18.82Z" transform="translate(556.82 793.66) rotate(-180)"/><path class="cls-1" d="M71.09,414.84h45.54a0,0,0,0,1,0,0v41.31a0,0,0,0,1,0,0H89.25A18.16,18.16,0,0,1,71.09,438V414.84A0,0,0,0,1,71.09,414.84Z"/><path class="cls-1" d="M273.79,414.84h27.39a0,0,0,0,1,0,0v41.31a0,0,0,0,1,0,0H255.64a0,0,0,0,1,0,0V433A18.16,18.16,0,0,1,273.79,414.84Z" transform="translate(556.82 870.99) rotate(-180)"/><path class="cls-1" d="M116.64,570.17h69.5a0,0,0,0,1,0,0v63.48a0,0,0,0,1,0,0h-40a29.47,29.47,0,0,1-29.47-29.47v-34A0,0,0,0,1,116.64,570.17Z"/><path class="cls-1" d="M215.6,570.17h40a0,0,0,0,1,0,0v63.48a0,0,0,0,1,0,0h-69.5a0,0,0,0,1,0,0v-34A29.47,29.47,0,0,1,215.6,570.17Z" transform="translate(441.77 1203.82) rotate(-180)"/><line class="cls-7" x1="186.14" y1="482.51" x2="186.14" y2="633.65"/><line class="cls-7" x1="116.64" y1="337.51" x2="116.64" y2="456.15"/><line class="cls-7" x1="255.64" y1="337.51" x2="255.64" y2="456.15"/></g></svg>