<svg xmlns="http://www.w3.org/2000/svg" viewBox="0 0 719.31 239.44"><defs><style>.cls-1{fill:#f41cb2;}.cls-2{fill:#eff41c;}.cls-3{fill:#2b6ce0;}.cls-4{fill:#5d1193;}.cls-5{fill:#21b510;}</style></defs><title>logo</title><g id="Layer_2" data-name="Layer 2"><g id="Layer_2-2" data-name="Layer 2"><ellipse cx="359.66" cy="119.72" rx="119.61" ry="359.69" transform="translate(234.42 477.5) rotate(-89.12)"/></g><g id="Layer_1-2" data-name="Layer 1"><path class="cls-1" d="M178.4,31.93l-.83,44.42a41.34,41.34,0,0,0-6.5-.37q-3.22.08-6.4.46a58.49,58.49,0,0,0-15.21,3.9,39.69,39.69,0,0,0-12.24,7.74,31,31,0,0,0-7.73,11.44,30.54,30.54,0,0,0-1.57,15,22.29,22.29,0,0,0,2.94,9.09,17.52,17.52,0,0,0,5.89,5.9A22,22,0,0,0,145,132.4a37.24,37.24,0,0,0,10,0,45.71,45.71,0,0,0,8.34-1.85,76.1,76.1,0,0,0,8.4-3.23,85,85,0,0,0,8-4.12q3.84-2.25,7-4.53l1.53,49.17a71.73,71.73,0,0,1-8.82,4.8q-4.79,2.21-9.91,4a102.44,102.44,0,0,1-10.3,3.09,86.76,86.76,0,0,1-10,1.85A69.26,69.26,0,0,1,122.64,180a65.77,65.77,0,0,1-22.56-10.81,62.53,62.53,0,0,1-16.41-18.33,61.36,61.36,0,0,1-8.12-24.27,103,103,0,0,1,1.31-34,80.94,80.94,0,0,1,12.45-29.4,74.33,74.33,0,0,1,23.55-21.77q14.57-8.7,34.63-11.14a110.15,110.15,0,0,1,15.65-.75A54,54,0,0,1,178.4,31.93Z"/><path class="cls-2" d="M236.62,76.27a29.44,29.44,0,0,1-1.1,7.09,27.89,27.89,0,0,1-2.68,6.35,26.67,26.67,0,0,1-4.09,5.36,24.81,24.81,0,0,1-5.3,4.1,25,25,0,0,1-13.5,3.31A25.5,25.5,0,0,1,203,101.3a26.44,26.44,0,0,1-6.1-2.83,24.88,24.88,0,0,1-5.07-4.24A25.24,25.24,0,0,1,188,88.81a27.18,27.18,0,0,1-2.34-6.32,26.12,26.12,0,0,1-.67-7,28.38,28.38,0,0,1,3.77-13.2,27.58,27.58,0,0,1,4.07-5.38,25.55,25.55,0,0,1,5.25-4.16,24.45,24.45,0,0,1,6.21-2.63,23.43,23.43,0,0,1,7-.77A30.27,30.27,0,0,1,222,51.58,22.75,22.75,0,0,1,235.1,65.47,29.19,29.19,0,0,1,236.62,76.27Zm-18.06.42a11.44,11.44,0,0,0-.39-3.41,9.32,9.32,0,0,0-1.38-3,7.6,7.6,0,0,0-2.34-2.15,6.76,6.76,0,0,0-3.28-.91,8.08,8.08,0,0,0-3.43.57,7.81,7.81,0,0,0-2.64,1.8,8.28,8.28,0,0,0-1.74,2.74,10.06,10.06,0,0,0-.69,3.37,12.37,12.37,0,0,0,.37,3.43,10.13,10.13,0,0,0,1.35,3.14,7.77,7.77,0,0,0,2.34,2.32,6.45,6.45,0,0,0,3.32,1,7.64,7.64,0,0,0,3.46-.63A7.75,7.75,0,0,0,216.14,83a9.3,9.3,0,0,0,1.73-2.89A10.61,10.61,0,0,0,218.56,76.7Z"/><path class="cls-3" d="M271.54,123.76q.84,4.88,1.37,9.77t1,9.85l-17.39,3.85q-.24-6.07-.64-12.13a114.67,114.67,0,0,0-1.43-12q-.06-.38-.26-1.31t-.49-2.11q-.29-1.18-.67-2.43a21.3,21.3,0,0,0-.82-2.28,7.2,7.2,0,0,0-.93-1.65,1.08,1.08,0,0,0-1-.53,2.25,2.25,0,0,0-1.72,1.23,6.13,6.13,0,0,0-.63,2.34A13.22,13.22,0,0,0,248,119q.16,1.33.3,2.14.25,1.43.56,2.85t.57,2.92q.91,5.29,1.56,10.58t1.19,10.65l-16.06,3.41q-.24-6.07-.66-12.09a120.27,120.27,0,0,0-1.46-12q-.06-.38-.27-1.36t-.5-2.2q-.3-1.21-.7-2.51t-.85-2.37a7.83,7.83,0,0,0-.95-1.72,1.1,1.1,0,0,0-1-.56,1.85,1.85,0,0,0-1.32.91,5.13,5.13,0,0,0-.64,1.88,13.46,13.46,0,0,0-.14,2.43q0,1.31.16,2.55t.29,2.29q.16,1,.22,1.56l3.55,25-17.19,3q-.45-5.86-.89-11.75t-1-11.75q-.57-5.86-1.3-11.7t-1.73-11.64L225.77,106l.61,4a23.66,23.66,0,0,1,1.37-2.22,15.55,15.55,0,0,1,1.73-2.09,10.8,10.8,0,0,1,2.07-1.64,6.87,6.87,0,0,1,2.42-.91,16.22,16.22,0,0,1,3-.26,7.88,7.88,0,0,1,2.55.45,6.41,6.41,0,0,1,2.18,1.36,10.76,10.76,0,0,1,1.9,2.46q.89-1.38,1.82-2.6a14.33,14.33,0,0,1,2-2.16,11.29,11.29,0,0,1,2.46-1.6,13,13,0,0,1,9-.65,12,12,0,0,1,4.46,2.73,16.93,16.93,0,0,1,3.26,4.43,37.21,37.21,0,0,1,2.29,5.44,54.88,54.88,0,0,1,1.57,5.74Q271.13,121.34,271.54,123.76Z"/><path class="cls-4" d="M317.93,78.78a16.68,16.68,0,0,1-1.23,6,15,15,0,0,1-3,4.52,16.32,16.32,0,0,1-4.28,3.19,26.68,26.68,0,0,1-5.19,2,34.2,34.2,0,0,1-5.68,1.07,45.83,45.83,0,0,1-5.74.24l-.52,15-16.37-.57q.14-4,.29-7.8t.3-7.54q.15-3.74.3-7.54t.33-7.83q.22-4.28.34-8.57t.48-8.64A65.26,65.26,0,0,1,287,60.63a63.21,63.21,0,0,1,9.3-.34,33.74,33.74,0,0,1,5.4.63,26.23,26.23,0,0,1,5.13,1.57A23.11,23.11,0,0,1,311.39,65a15.51,15.51,0,0,1,5.84,8.1A16.76,16.76,0,0,1,317.93,78.78Zm-15.64.65A4.62,4.62,0,0,0,301,75.81a5.1,5.1,0,0,0-3.56-1.41,10,10,0,0,0-1.53.07q-.79.1-1.5.25L293.65,85a6.64,6.64,0,0,0,.95.1l.95,0a7.19,7.19,0,0,0,2.46-.34,6.53,6.53,0,0,0,2.13-1.14,6.09,6.09,0,0,0,1.52-1.81A5.24,5.24,0,0,0,302.29,79.42Z"/><path class="cls-5" d="M331.52,158.41l-6.38,19.78-39-5.47L302,108.07l23.66,5.23-12.6,41Z"/><path class="cls-4" d="M380.09,68.46l-9.68,147.9-27.14,1.44,2.6-147.5Z"/><path class="cls-2" d="M431.26,50.28l-6.71,13.29a12.59,12.59,0,0,0-1.71-1.11,18.8,18.8,0,0,0-1.82-.85,17.64,17.64,0,0,0-4.66-1.19,12,12,0,0,0-4.44.3,9.57,9.57,0,0,0-3.8,2,10,10,0,0,0-2.71,4,9.25,9.25,0,0,0-.74,3.4,6.38,6.38,0,0,0,.63,2.87,7,7,0,0,0,1.87,2.32,11,11,0,0,0,3,1.72,14.14,14.14,0,0,0,2.58.75,21.52,21.52,0,0,0,2.81.36,23.59,23.59,0,0,0,2.84,0,24.64,24.64,0,0,0,2.66-.29L414.31,93a22.51,22.51,0,0,1-3.21.06q-1.67-.08-3.37-.33A30.48,30.48,0,0,1,404.4,92a25.43,25.43,0,0,1-3-1,21.69,21.69,0,0,1-7.73-5.12A21.39,21.39,0,0,1,389,78.54a23.17,23.17,0,0,1-1.43-8.63,25.3,25.3,0,0,1,1.89-9A34.37,34.37,0,0,1,395,51.53a24.9,24.9,0,0,1,7.7-6.24,22.23,22.23,0,0,1,9.46-2.41A26.23,26.23,0,0,1,422.94,45a32.12,32.12,0,0,1,4.42,2.2A17.91,17.91,0,0,1,431.26,50.28Z"/><path class="cls-1" d="M474.16,148.41l-21.76,6.37-4.28-9.69-10.21,1.61-.64,10.47-23.19,1.36,8.41-62.45,24.7-5.18Zm-29.81-16.77-5.86-15-.85,16.1Z"/><path class="cls-5" d="M506.59,44.41l-2.52,17-12.43-1.05-6.11,37L467.9,96.07l3-37.43-12.45-.89,2.85-18.87Z"/><path class="cls-4" d="M523,145.49a44.72,44.72,0,0,1-.15,6.13q-6,.66-11.89,1.78l-11.79,2.23a8.72,8.72,0,0,0,3,3.91,7.38,7.38,0,0,0,4.72,1.3,10.28,10.28,0,0,0,3-.66,25.42,25.42,0,0,0,3.26-1.47q1.62-.86,3.08-1.84t2.53-1.77l-1,16a15.52,15.52,0,0,1-2.89,1.92,20.34,20.34,0,0,1-3.27,1.34,25.4,25.4,0,0,1-3.45.82,28.91,28.91,0,0,1-3.43.36,20.26,20.26,0,0,1-6.4-.66,18.73,18.73,0,0,1-5.33-2.42,19.61,19.61,0,0,1-4.27-3.84,23.53,23.53,0,0,1-3.14-4.93,29.23,29.23,0,0,1-2-5.72,32.19,32.19,0,0,1-.87-6.15,36.3,36.3,0,0,1,.31-6.56,32.61,32.61,0,0,1,1.53-6.37,26.73,26.73,0,0,1,2.81-5.74,21.9,21.9,0,0,1,4.1-4.71,19.25,19.25,0,0,1,5.43-3.27,20.69,20.69,0,0,1,6.82-1.4,18,18,0,0,1,5.75.61,15.91,15.91,0,0,1,4.71,2.18,16.46,16.46,0,0,1,3.67,3.48,21,21,0,0,1,2.66,4.51,27.64,27.64,0,0,1,1.68,5.24A33.86,33.86,0,0,1,523,145.49Zm-14.13-1.2a10.13,10.13,0,0,0-.3-2,6.42,6.42,0,0,0-.77-1.85,4.19,4.19,0,0,0-1.31-1.33,3.28,3.28,0,0,0-2-.46,4.19,4.19,0,0,0-2.44.87,7.32,7.32,0,0,0-1.76,2A11.48,11.48,0,0,0,499.2,144a18.84,18.84,0,0,0-.63,2.49l10.35-1.45Z"/><path class="cls-3" d="M650.56,146a97,97,0,0,1-9.73,25.93,75.39,75.39,0,0,1-14.63,18.66,66.41,66.41,0,0,1-18.5,12,86,86,0,0,1-21.36,6.09,107.94,107.94,0,0,1-23.27.92,149.48,149.48,0,0,1-24.25-3.63q-4.56-1.06-8.86-2.35t-8.73-2.88L556.29,62.63a115.64,115.64,0,0,1,23.19-.15,170.2,170.2,0,0,1,22.81,3.69A75.65,75.65,0,0,1,626.8,76.38,57.19,57.19,0,0,1,644,93.58,58.4,58.4,0,0,1,652.35,117Q654.23,130.18,650.56,146Zm-75.48,25.54a30.08,30.08,0,0,0,11.53-1.41,32.68,32.68,0,0,0,17.65-13.86A36.52,36.52,0,0,0,608.86,145a54,54,0,0,0,1.48-11.62,27.15,27.15,0,0,0-1.65-10,19.49,19.49,0,0,0-5.44-7.79,24.32,24.32,0,0,0-9.89-4.95Z"/></g></g></svg>