<svg xmlns="http://www.w3.org/2000/svg" viewBox="0 0 628 768"><defs><style>.cls-1{fill:#e8ed20;}.cls-2,.cls-7,.cls-8,.cls-9{fill:none;}.cls-2{stroke:#f7931e;stroke-width:3px;}.cls-2,.cls-5,.cls-7,.cls-8,.cls-9{stroke-miterlimit:10;}.cls-3{fill:#f4f76f;}.cls-4{fill:#f9aace;}.cls-5{stroke:#a5a826;}.cls-5,.cls-7,.cls-8,.cls-9{stroke-width:2px;}.cls-6{fill:#e8f440;}.cls-7{stroke:#9e3a08;}.cls-8{stroke:#000;}.cls-9{stroke:#f22525;}</style></defs><title>love</title><g id="Layer_3" data-name="Layer 3"><path class="cls-1" d="M297.75,35.44c-13.84-13.44-34.35-16.85-53.49-17C169.42,18,95.81,61.21,58.74,127.29,22.14,192.53,21.47,272.14,29.38,346.8c2.64,24.92,7.91,52.79,28.42,66.7,11,7.43,25.7,9.4,37.63,3.71,10.57-5,17.8-15.12,24.57-24.79L275.13,170.87C300,135.37,338.91,75.41,297.75,35.44Z"/><path class="cls-2" d="M308.23,80.26c-12.43-16.84-35.79-24.73-55.89-18.87-9.36,2.73-18.63,9.19-20.51,18.76s7.86,20.58,16.9,16.95c8.33-3.34,9-16.12,2.92-22.7s-16-8.06-24.92-7.48a74.43,74.43,0,0,0-44.89,19c-6.47,5.89-12.14,13.62-12.25,22.37s7.55,17.8,16.18,16.37c8.37-1.39,12.79-12.26,9.26-20S182.27,93,173.81,93.7,157.64,98.83,151,104.17a87.15,87.15,0,0,0-25.72,34.58c-3.59,8.77-5.64,19-1.51,27.53s16.54,13.15,23.52,6.74c6.39-5.86,4-17.65-3.42-22.2s-17.41-2.74-24.37,2.43-11.34,13.09-14.65,21.1a123.22,123.22,0,0,0-8,28.68c-1.18,7.82-1.58,16,1,23.48s8.71,14.13,16.51,15.46,16.67-4.13,17.38-12c.9-10-11.43-17.14-21.05-14.42s-16.07,11.82-19.92,21a79.21,79.21,0,0,0-4.23,47.23c2.55,11.58,12.1,24.71,23.39,21.1,8.69-2.79,11.29-15.58,5.42-22.56s-17.28-7.54-24.91-2.52-11.61,14.37-12,23.49,2.44,18.08,6,26.49c3.4,8,7.93,16.13,15.54,20.34s19,2.63,22.68-5.23c4.71-9.9-6.75-21.55-17.68-20.6s-19.42,10-24.82,19.54c-5,8.83-8.39,19.06-6.84,29.09s9,19.58,19,21.18,21.08-7.16,19.84-17.24c-1.3-10.55-14.37-16.2-24.69-13.64s-18.24,10.62-25.5,18.39"/><path class="cls-2" d="M310.52,80.23a31.75,31.75,0,0,0-54.88-19.48c.05,6.58,10.22,9.28,14.72,4.49s3-13.13-1.67-17.73-11.6-6.15-18.17-6.49a64.85,64.85,0,0,0-35.85,8.7c-6,3.53-12,9-12.22,16s9,13.34,14,8.47c4.34-9.58-5.48-20.77-15.95-21.78s-20.31,4.71-29,10.58C164.3,67.76,156.75,73.62,155,82.1s6.5,18.76,14.47,15.37c6.49-2.76,7.15-12.84,2.15-17.81s-13.28-5.24-19.8-2.54-11.69,7.81-16.68,12.79c-5.37,5.36-10.85,10.89-13.91,17.83s-3.18,15.71,1.71,21.51,15.42,6.49,19.61.17c5-7.54-2.75-18.3-11.73-19.41s-17.45,4.1-24.6,9.64C98.81,125.36,91.69,132,88,140.54s-3,19.57,3.75,26,19.85,5.45,23.72-3c3.41-7.48-2.06-17-9.91-19.41s-16.67,1.12-22.27,7.13-8.46,14.09-10.15,22.14-2.3,16.37.3,24.05,9,14.47,17,15.65,17-4.78,17.37-12.88c.5-9.88-11.53-16.78-21.11-14.31S70.5,197,66.23,205.93c-4.12,8.6-6.71,18.41-4.49,27.68s10.31,17.56,19.85,17.59S99.8,240.6,96,231.85C92,222.7,78.26,222,70.32,228s-11.46,16.11-14.58,25.58C53.41,260.69,51,268,51.48,275.5s4.35,15.26,11.3,18.06,16.49-1.62,17-9.09c.72-9.75-13.52-14.58-21.77-9.33s-11.4,15.57-13.86,25c-2.4,9.22-4.75,18.83-2.91,28.17S50.44,346.68,60,347.2s18.38-11,13.28-19c-4.63-7.32-16.54-6.23-22.57,0S43,343.58,42,352.18c-.89,7.38-1.55,15,.37,22.15s6.89,14,14,16.08,16.05-2,17.5-9.27c1.74-8.75-8.89-16.57-17.37-13.78s-12.83,13.19-10.74,21.86S55,404.64,63.08,408.44s17.05,5.13,25.89,6.4"/><path class="cls-2" d="M309.72,79.48c-5.88-23.67-15.18-64.11-39.54-65.3-7.48-.37-15.56,1-20.89,6.26s-6.31,15.2-.45,19.85c7.87,6.24,20.7-3.53,19.2-13.46S255.55,10.64,245.5,11s-19.18,5.63-27.68,11c-6.7,4.23-13.62,9-17,16.11s-1.68,17.36,5.57,20.57c9,4,19.37-6.79,17.43-16.42s-12.16-15.79-22-16.38S182.5,29,173.36,32.61c-8.08,3.21-16.71,6.86-21.25,14.27s-2,19.54,6.54,21.21,15.62-10.18,11.2-17.81-16-8.86-23.23-3.82S136.27,61,136.75,69.78c.4,7.26,3.32,14.87,9.51,18.69s15.85,2,18.56-4.75c2.56-6.38-2.21-13.9-8.59-16.45S142.58,66,136,68.07a83.29,83.29,0,0,0-34.34,21.37c-4.93,5.11-9.32,11.12-10.73,18.08s.81,15,6.77,18.9,15.48,1.7,17.81-5c2.74-7.91-6.1-16.14-14.45-15.53S86,113,81.39,120a65,65,0,0,0-10.24,41.12c.57,6.29,2.45,13.07,7.62,16.7s14.17,1.64,15.22-4.59-6.3-10.94-12.42-9.92S70.72,169,66.4,173.44C60.82,179.17,55.17,185,51.48,192.1s-5.21,15.73-2.15,23.12,11.53,12.71,19.22,10.52,11.85-13.09,6.44-19c-26.47,11.08-40.56,45.15-29.64,71.69,2.87,7,7.66,13.72,14.78,16.2s16.55-1.23,18-8.63c1.76-9.29-10.25-16.38-19.29-13.61S43.9,283.75,39.28,292c-5.21,9.28-9.91,19.38-9.65,30S36.55,343.82,47,346s22.11-8.86,18.16-18.74c-14.89,4.09-25.6,19.87-23.9,35.22s15.61,28.4,31,29.13"/><path class="cls-2" d="M131.74,404.25c-12.68,5.08-26.28-9.18-26.07-22.84s9.1-25.46,17.59-36.16c-2.61,9.51-6,19.15-12.58,26.46s-17.21,11.8-26.56,8.69c-11.5-3.81-17.06-17.7-15.47-29.71s8.54-22.53,15.3-32.58c4.29-6.37,9-13.09,16.11-15.94s17.17.4,18.4,8c1.28,7.92-8.38,14.25-16.17,12.34S89.13,313.35,85.95,306c-12.88-29.8,3.42-68.72,33.7-80.44,3.94,2.12,2.89,8.91-1.18,10.77s-9.1-.41-11.7-4-3.3-8.28-3.65-12.74a110.4,110.4,0,0,1,12.46-60c4-7.45,9.42-14.93,17.53-17.26s18.63,3.6,17.8,12c-.68,6.88-9,11.28-15.61,9.19s-10.81-9.05-11.25-16,2.3-13.66,6-19.51a62.77,62.77,0,0,1,38.08-27.34c4.75-1.14,9.88-1.69,14.44.07s8.31,6.38,7.67,11.23-6.88,8.42-10.85,5.56A82.44,82.44,0,0,1,225.31,75c4.66-1.72,9.88-3,14.54-1.27s8,7.61,5.45,11.87l-16.84-5.29c23.23-16.16,56.19-16.88,80.1-1.75-9.86-16.23-19.72-26.82-38.36-30.4-8.55-1.64-18.58-1.15-24.37,5.36S243.61,73.32,252.31,73c8-.31,11.37-12,6.69-18.54S245.44,46,237.4,46a70.52,70.52,0,0,0-40,12.45c-4.52,3.13-8.84,7-10.58,12.26s0,11.9,5,14.19c6.42,2.95,14.18-3.4,14.77-10.44s-3.87-13.58-9.19-18.23C179,40.12,147.75,41.93,131.3,60c-5.42,6-9.36,14.52-6.37,22s15.5,9.92,18.86,2.59c2.24-4.88-1-10.93-5.8-13.37s-10.5-2.07-15.77-1a67.85,67.85,0,0,0-49.64,43.39c-3.05,8.79-3.84,19.58,2.44,26.45s21,4.1,21.09-5.21C96.25,126,84.58,122.1,75.8,123.4c-18.94,2.79-35.37,18.19-39.38,36.91s4.67,39.5,20.81,49.81C64,214.45,72.9,217,80.1,213.33S89.9,198,83.21,193.55c-7.66-5.13-17.44,3.1-21.48,11.38a65.38,65.38,0,0,0,.24,57c3,5.93,7.37,11.78,13.77,13.49s14.54-3,13.94-9.64c-.52-5.7-7.13-9.22-12.81-8.48S66.4,261.74,62,265.45c-10,8.48-19.71,18.11-24,30.46s-1.68,28,9.22,35.28,29.24.53,29.82-12.55C56.82,320.27,40.83,342.29,45.53,362s28.91,32.18,47.7,24.51c-3.92,4-7.72,8.51-8.88,14s1.25,12.08,6.55,13.91,12-3.93,9.71-9"/><path class="cls-2" d="M206.4,63.09c5.88-8.77,3.54-21.3-3.39-29.27s-17.42-12-27.84-13.72c-8.37-1.38-17.08-.94-24.48,3.77C145,27.5,142.18,34.45,141,41.1s-.6,13.47,0,20.19a14,14,0,0,0,12.92-7.06"/><path class="cls-2" d="M84.43,158.79a78.68,78.68,0,0,0-48.29,6c-7.53,3.54-14.64,8.46-19.27,15.37s-6.44,16-3.27,23.74,12,13.1,20,11.1"/><path class="cls-2" d="M51.69,224a38,38,0,0,0-23.18,60"/><path class="cls-2" d="M72.88,379.26a25.46,25.46,0,0,0-.41,47.93"/><path class="cls-1" d="M333.37,40.61c13.55-13.44,33.63-16.85,52.38-17C459,23.21,531.09,66.38,567.39,132.46,603.23,197.7,603.89,277.3,596.14,352c-2.59,24.92-7.75,52.79-27.83,66.7-10.73,7.43-25.17,9.4-36.84,3.71-10.35-5-17.43-15.12-24.06-24.79L355.52,176C331.18,140.54,293.07,80.58,333.37,40.61Z"/><path class="cls-2" d="M317.21,85.43C329.65,68.59,353,60.7,373.1,66.56c9.36,2.73,18.63,9.19,20.51,18.76s-7.86,20.58-16.9,16.95c-8.33-3.34-9-16.12-2.92-22.7s16-8.06,24.92-7.48a74.43,74.43,0,0,1,44.89,19c6.47,5.89,12.14,13.62,12.25,22.37s-7.55,17.8-16.18,16.37c-8.37-1.39-12.79-12.26-9.26-20s12.75-11.67,21.21-11S467.8,104,474.4,109.34a87.15,87.15,0,0,1,25.72,34.58c3.59,8.77,5.64,19,1.51,27.53s-16.54,13.15-23.52,6.74c-6.39-5.86-4-17.65,3.42-22.2s17.41-2.74,24.37,2.43,11.34,13.09,14.65,21.1a123.22,123.22,0,0,1,8,28.68c1.18,7.82,1.58,16-1,23.48S518.8,245.8,511,247.14s-16.67-4.13-17.38-12c-.9-10,11.43-17.14,21.05-14.42s16.07,11.82,19.92,21A79.21,79.21,0,0,1,538.83,289c-2.55,11.58-12.1,24.71-23.39,21.1-8.69-2.79-11.29-15.58-5.42-22.56S527.31,280,534.93,285s11.61,14.37,12,23.49-2.44,18.08-6,26.49c-3.4,8-7.93,16.13-15.54,20.34s-19,2.63-22.68-5.23c-4.71-9.9,6.75-21.55,17.68-20.6s19.42,10,24.82,19.54c5,8.83,8.39,19.06,6.84,29.09s-9,19.58-19,21.18-21.08-7.16-19.84-17.24c1.3-10.55,14.37-16.2,24.69-13.64s18.24,10.62,25.5,18.39"/><path class="cls-2" d="M314.92,85.4a31.75,31.75,0,0,1,54.88-19.48c-.05,6.58-10.22,9.28-14.72,4.49s-3-13.13,1.67-17.73,11.6-6.15,18.17-6.49a64.85,64.85,0,0,1,35.85,8.7c6,3.53,12,9,12.22,16s-9,13.34-14,8.47c-4.34-9.58,5.48-20.77,15.95-21.78s20.31,4.71,29,10.58c7.19,4.83,14.74,10.69,16.52,19.16S464,106,456,102.64c-6.49-2.76-7.15-12.84-2.15-17.81s13.28-5.24,19.8-2.54,11.69,7.81,16.68,12.79c5.37,5.36,10.85,10.89,13.91,17.83s3.18,15.71-1.71,21.51-15.42,6.49-19.61.17c-5-7.54,2.75-18.3,11.73-19.41s17.45,4.1,24.6,9.64c7.37,5.71,14.49,12.3,18.13,20.89s3,19.57-3.75,26-19.85,5.45-23.72-3c-3.41-7.48,2.06-17,9.91-19.41s16.67,1.12,22.27,7.13,8.46,14.09,10.15,22.14,2.3,16.37-.3,24.05-9,14.47-17,15.65-17-4.78-17.37-12.88c-.5-9.88,11.53-16.78,21.11-14.31s16.29,11.12,20.57,20c4.12,8.6,6.71,18.41,4.49,27.68s-10.31,17.56-19.85,17.59-18.21-10.6-14.42-19.35c4-9.15,17.74-9.9,25.69-3.87s11.46,16.11,14.58,25.58c2.34,7.12,4.71,14.45,4.26,21.94s-4.35,15.26-11.3,18.06-16.49-1.62-17-9.09c-.72-9.75,13.52-14.58,21.77-9.33s11.4,15.57,13.86,25c2.4,9.22,4.75,18.83,2.91,28.17s-9.16,18.33-18.67,18.85-18.38-11-13.28-19c4.63-7.32,16.54-6.23,22.57,0s7.65,15.38,8.69,24c.89,7.38,1.55,15-.37,22.15s-6.89,14-14,16.08-16.05-2-17.5-9.27c-1.74-8.75,8.89-16.57,17.37-13.78s12.83,13.19,10.74,21.86-9.26,15.42-17.33,19.23-17.05,5.13-25.89,6.4"/><path class="cls-2" d="M324.33,79.48c5.88-23.67,15.18-64.11,39.54-65.3,7.48-.37,15.56,1,20.89,6.26s6.31,15.2.45,19.85c-7.87,6.24-20.7-3.53-19.2-13.46s12.5-16.17,22.54-15.8,19.18,5.63,27.68,11c6.7,4.23,13.62,9,17,16.11s1.68,17.36-5.57,20.57c-9,4-19.37-6.79-17.43-16.42s12.16-15.79,22-16.38,19.32,3.11,28.46,6.74c8.08,3.21,16.71,6.86,21.25,14.27s2,19.54-6.54,21.21-15.62-10.18-11.2-17.81,16-8.86,23.23-3.82S497.78,61,497.3,69.78c-.4,7.26-3.32,14.87-9.51,18.69s-15.85,2-18.56-4.75c-2.56-6.38,2.21-13.9,8.59-16.45s13.65-1.3,20.19.79a83.29,83.29,0,0,1,34.34,21.37c4.93,5.11,9.32,11.12,10.73,18.08s-.81,15-6.77,18.9-15.48,1.7-17.81-5c-2.74-7.91,6.1-16.14,14.45-15.53s15.11,7.1,19.7,14.11a65,65,0,0,1,10.24,41.12c-.57,6.29-2.45,13.07-7.62,16.7s-14.17,1.64-15.22-4.59,6.3-10.94,12.42-9.92,10.87,5.7,15.19,10.14c5.57,5.73,11.22,11.57,14.92,18.66s5.21,15.73,2.15,23.12-11.53,12.71-19.22,10.52-11.85-13.09-6.44-19c26.47,11.08,40.56,45.15,29.64,71.69-2.87,7-7.66,13.72-14.78,16.2s-16.55-1.23-18-8.63c-1.76-9.29,10.25-16.38,19.29-13.61s14.89,11.34,19.52,19.58c5.21,9.28,9.91,19.38,9.65,30s-6.92,21.8-17.35,23.94S565,337.1,568.91,327.21c14.89,4.09,25.6,19.87,23.9,35.22s-15.61,28.4-31,29.13"/><path class="cls-2" d="M493.7,409.42c12.68,5.08,26.28-9.18,26.07-22.84s-9.1-25.46-17.59-36.16c2.61,9.51,6,19.15,12.58,26.46s17.21,11.8,26.56,8.69c11.5-3.81,17.06-17.7,15.47-29.71s-8.54-22.53-15.3-32.58c-4.29-6.37-9-13.09-16.11-15.94s-17.17.4-18.4,8c-1.28,7.92,8.38,14.25,16.17,12.34s13.15-9.12,16.33-16.49c12.88-29.8-3.42-68.72-33.7-80.44-3.94,2.12-2.89,8.91,1.18,10.77s9.1-.41,11.7-4,3.3-8.28,3.65-12.74a110.4,110.4,0,0,0-12.46-60c-4-7.45-9.42-14.93-17.53-17.26s-18.63,3.6-17.8,12c.68,6.88,9,11.28,15.61,9.19s10.81-9.05,11.25-16-2.3-13.66-6-19.51a62.77,62.77,0,0,0-38.08-27.34c-4.75-1.14-9.88-1.69-14.44.07s-8.31,6.38-7.67,11.23,6.88,8.42,10.85,5.56a82.44,82.44,0,0,0-45.93-42.55c-4.66-1.72-9.88-3-14.54-1.27s-8,7.61-5.45,11.87L397,85.43c-23.23-16.16-56.19-16.88-80.1-1.75,9.86-16.23,19.72-26.82,38.36-30.4,8.55-1.64,18.58-1.15,24.37,5.36s2.21,19.84-6.49,19.51c-8-.31-11.37-12-6.69-18.54S380,51.17,388,51.15A70.52,70.52,0,0,1,428,63.6c4.52,3.13,8.84,7,10.58,12.26s0,11.9-5,14.19c-6.42,2.95-14.18-3.4-14.77-10.44S422.68,66,428,61.38c18.42-16.09,49.69-14.29,66.14,3.82,5.42,6,9.36,14.52,6.37,22S485,97.12,481.65,89.8c-2.24-4.88,1-10.93,5.8-13.37s10.5-2.07,15.77-1a67.85,67.85,0,0,1,49.64,43.39c3.05,8.79,3.84,19.58-2.44,26.45s-21,4.1-21.09-5.21c-.13-8.87,11.54-12.77,20.32-11.48,18.94,2.79,35.37,18.19,39.38,36.91s-4.67,39.5-20.81,49.81c-6.79,4.34-15.67,6.84-22.87,3.21s-9.81-15.29-3.11-19.77c7.66-5.13,17.44,3.1,21.48,11.38a65.38,65.38,0,0,1-.24,57c-3,5.93-7.37,11.78-13.77,13.49s-14.54-3-13.94-9.64c.52-5.7,7.13-9.22,12.81-8.48s10.46,4.45,14.82,8.16c10,8.48,19.71,18.11,24,30.46s1.68,28-9.22,35.28-29.24.53-29.82-12.55c20.23,1.63,36.22,23.65,31.52,43.39S551,399.38,532.2,391.71c3.92,4,7.72,8.51,8.88,14s-1.25,12.08-6.55,13.91-12-3.93-9.71-9"/><path class="cls-2" d="M419,68.26C413.16,59.49,415.5,47,422.42,39s17.42-12,27.84-13.72c8.37-1.38,17.08-.94,24.48,3.77,5.7,3.62,8.52,10.57,9.68,17.23s.6,13.47,0,20.19a14,14,0,0,1-12.92-7.06"/><path class="cls-2" d="M541,164a78.68,78.68,0,0,1,48.29,6c7.53,3.54,14.64,8.46,19.27,15.37s6.44,16,3.27,23.74-12,13.1-20,11.1"/><path class="cls-2" d="M577.2,229.17a38,38,0,0,1,23.18,60"/><path class="cls-2" d="M556,384.43a25.46,25.46,0,0,1,.41,47.93"/></g><g id="Layer_4" data-name="Layer 4"><path class="cls-3" d="M415.2,584.31c10.94,82.17-37.93,138.1-101.66,139.56-68,1.56-117.27-54.15-101.66-139.56,13.86-75.82,45.51-139.56,101.66-139.56S405,507.91,415.2,584.31Z"/><ellipse class="cls-4" cx="274.87" cy="741.96" rx="40.49" ry="21.54"/><ellipse class="cls-4" cx="354.13" cy="741.96" rx="40.49" ry="21.54"/><line class="cls-5" x1="313.64" y1="723.87" x2="313.64" y2="673.9"/><path class="cls-6" d="M219.16,552.43h1.15c31.71,0,64.45,10.83,90.49-7.25,3,9.22,6.17,17.29,9.13,26.51C289.21,595.52,247.5,608.54,208.7,606,211.33,587.64,216.53,570.82,219.16,552.43Z"/><path class="cls-6" d="M410.6,561.68a47.37,47.37,0,0,1-34.08,4c-6.76-1.78-12.92-5-19-8.25-2.89,7.31-5.67,14.91-8.56,22.22,19.51,11.82,43,17,66.37,14.92C415,583.28,414,572.58,410.6,561.68Z"/><path class="cls-4" d="M356.11,537.81a29.94,29.94,0,0,0-13.41-4.68c-5.13-.49-10.71.51-14.18,3-3.75,2.67-4.53,6.48-5.15,10l-3.13,18.2c-.87,5-1.46,10.71,3.66,14.59,5,3.75,14.15,4.41,21.1,2.33a24.3,24.3,0,0,0,14.39-11C365.21,560,369.29,546.42,356.11,537.81Z"/><ellipse class="cls-4" cx="314.5" cy="557.6" rx="23.26" ry="26.71"/></g><g id="Layer_2" data-name="Layer 2"><circle class="cls-4" cx="312.72" cy="271.59" r="186.94"/><path class="cls-7" d="M206.4,154c6.19-14.21,16.93-26.66,30.8-33.59s30.86-8,44.95-1.48,24.61,20.77,25.32,36.26"/><path class="cls-8" d="M234.07,202.12c-.51-7.87-.11-16.15,3.79-23s12.14-11.76,19.73-9.62c6.08,1.72,10.34,7.49,12,13.58s1.26,12.54.82,18.85"/><path class="cls-9" d="M210.32,256.94S184.47,401.67,306.8,401.67,417.07,256.94,417.07,256.94"/><path class="cls-7" d="M433.25,154c-6.19-14.21-16.93-26.66-30.8-33.59s-30.86-8-44.95-1.48-24.61,20.77-25.32,36.26"/><path class="cls-8" d="M405.57,202.12c.51-7.87.11-16.15-3.79-23s-12.14-11.76-19.73-9.62c-6.08,1.72-10.34,7.49-12,13.58s-1.26,12.54-.82,18.85"/><path class="cls-9" d="M187,276.76c7.5-16.76,28.72-25.91,46.06-19.85"/><path class="cls-9" d="M436.63,269.51A48.27,48.27,0,0,0,394.92,255"/></g></svg>