<svg xmlns="http://www.w3.org/2000/svg" viewBox="0 0 1000 397.81"><defs><style>.cls-1{fill:#f41cb2;}.cls-2{fill:#21b510;}.cls-3{fill:#5d1193;}.cls-4{fill:#2b6ce0;}</style></defs><title>quiz</title><g id="Layer_1" data-name="Layer 1"><rect x="-0.01" y="-0.19" width="1000" height="398"/></g><g id="Layer_2" data-name="Layer 2"><path class="cls-1" d="M404.34,163.17a108.67,108.67,0,0,1-2.62,42.27A96.29,96.29,0,0,1,382.15,243l22.67,20.73-47.61,40.37-16.62-31.93a105.8,105.8,0,0,1-10.65,3.13,107.29,107.29,0,0,1-10.94,2,99.77,99.77,0,0,1-26.6,0,102.84,102.84,0,0,1-24.71-6.51,95.22,95.22,0,0,1-21.86-12.38,98.88,98.88,0,0,1-18-17.59,94.87,94.87,0,0,1-13-22.07A98.59,98.59,0,0,1,207.9,193a103.67,103.67,0,0,1-.1-26.66,105.26,105.26,0,0,1,6.38-25.2,102.08,102.08,0,0,1,12.23-22.49A98.66,98.66,0,0,1,243.83,100a94.88,94.88,0,0,1,21.94-13.5,93.13,93.13,0,0,1,25.8-7.15,118.76,118.76,0,0,1,41.31,1.37,90.9,90.9,0,0,1,34.14,15,87.51,87.51,0,0,1,24.61,27.78Q401.37,140.57,404.34,163.17Zm-68.54,13a43,43,0,0,0-3.59-12.47,34.5,34.5,0,0,0-7-10.21,27.55,27.55,0,0,0-10.24-6.39A27.89,27.89,0,0,0,301.76,146a31.88,31.88,0,0,0-12.46,4.17,28.91,28.91,0,0,0-8.83,8.17,31.26,31.26,0,0,0-4.89,11.19,37.36,37.36,0,0,0-.5,13.22,44.43,44.43,0,0,0,3.61,12.61A37.78,37.78,0,0,0,285.78,206a29.12,29.12,0,0,0,10.31,7,25.8,25.8,0,0,0,13.2,1.45,29.19,29.19,0,0,0,12.36-4.44,30.23,30.23,0,0,0,8.83-8.75,34.12,34.12,0,0,0,4.83-11.69A38.79,38.79,0,0,0,335.8,176.21Z"/><path class="cls-2" d="M545.7,198.75q0,6.6-.62,14.52t-2,16.39q-1.43,8.47-3.7,17.15a122.77,122.77,0,0,1-5.66,16.71,98.66,98.66,0,0,1-7.89,15,59.19,59.19,0,0,1-10.34,12.21,45.65,45.65,0,0,1-13.05,8.2,41.6,41.6,0,0,1-16,3,44.41,44.41,0,0,1-18-3.34,40.31,40.31,0,0,1-13.05-9,47.7,47.7,0,0,1-8.91-13.19A82.62,82.62,0,0,1,441,260.46a121.82,121.82,0,0,1-2.72-17.2q-.76-8.77-.76-16.88a249,249,0,0,1,1.25-24.9Q440,189,442.34,176.66l41.7,1.6q-2.41,14-4.14,28.11a232.23,232.23,0,0,0-1.74,28.38q0,1.52.13,4.5t.49,6.68q.36,3.7,1,7.57a41.67,41.67,0,0,0,1.83,7.08,18.14,18.14,0,0,0,2.81,5.26,4.86,4.86,0,0,0,3.88,2,6,6,0,0,0,4.63-2.45,22.85,22.85,0,0,0,3.61-6.55,66.22,66.22,0,0,0,2.72-9.44q1.16-5.35,2-11.14t1.29-11.58q.49-5.79.8-10.78t.4-8.82q.09-3.83.09-5.7,0-6.95-.22-13.85t-.67-13.77h41.7Q545.7,186.1,545.7,198.75Z"/><path class="cls-3" d="M637,78l.88,195.85-60,8.28L561.37,88.49Z"/><path class="cls-4" d="M769.19,152.57l-51.13,42.7,37.21,9-9.14,35.57-75.82-15.13,4.61-33.81,57.78-46.61-41-6.7,7.85-33.92L775,121.91Z"/></g></svg>