<svg xmlns="http://www.w3.org/2000/svg" viewBox="0 0 1000 397.81"><defs><style>.cls-1{fill:#f41cb2;}.cls-2{fill:#2b6ce0;}.cls-3{fill:#eff41c;}.cls-4{fill:#5d1193;}.cls-5{fill:#21b510;}</style></defs><title>social-header</title><g id="Layer_1" data-name="Layer 1"><rect y="-0.19" width="1000" height="398"/></g><g id="Layer_2" data-name="Layer 2"><path class="cls-1" d="M336.58,221.78q5.19,28.19-.71,51.08a99.89,99.89,0,0,1-20.29,40,116.64,116.64,0,0,1-35.85,28.29,168.33,168.33,0,0,1-47.58,16,104.29,104.29,0,0,1-22.61,1.39q-12.53-.45-25.61-2.2t-25.35-4.27q-12.27-2.53-21.88-5l-6.54-86.44a146.92,146.92,0,0,0,41.72,8.81,171.13,171.13,0,0,0,42.87-2.25q3.91-.72,9.41-2a45.27,45.27,0,0,0,10.26-3.8,23.2,23.2,0,0,0,7.69-6.2q2.93-3.73,1.87-9.49a9.89,9.89,0,0,0-3.7-6.23,18.83,18.83,0,0,0-7.21-3.35,40.25,40.25,0,0,0-9.34-1q-5.11,0-9.92.44t-8.92,1.22l-6.58,1.21a82.79,82.79,0,0,1-33.34-.25A74.39,74.39,0,0,1,136.9,225a79.29,79.29,0,0,1-21-23.16,92.93,92.93,0,0,1-11.8-31.76q-4.47-24.27,1.77-45.31A103.07,103.07,0,0,1,126,87.26a120.39,120.39,0,0,1,33.75-27.59,137.58,137.58,0,0,1,42.5-15.26q10.08-1.85,20.91-3.1a207.07,207.07,0,0,1,43.32-.42A125,125,0,0,1,287,44.57l7.55,85A256.37,256.37,0,0,0,263.73,127a149.36,149.36,0,0,0-30.52,2.32q-2.68.49-6.87,1.37T217.6,133a94,94,0,0,0-9.08,3.27,40.19,40.19,0,0,0-7.92,4.33,16.55,16.55,0,0,0-5.12,5.73,10.8,10.8,0,0,0,3.93,13.85,22.63,22.63,0,0,0,9,2.81,59,59,0,0,0,11.51.12q6.18-.5,12.17-1.49t11.11-2a62.08,62.08,0,0,1,8.49-1.24,85.42,85.42,0,0,1,30.92,1.54,69.9,69.9,0,0,1,25.24,11.74,68.22,68.22,0,0,1,18.33,21A91.53,91.53,0,0,1,336.58,221.78Z"/><path class="cls-2" d="M416.12,114.75a63.36,63.36,0,0,1-1.84,15.34A60,60,0,0,1,409,143.95a57.41,57.41,0,0,1-8.39,11.84,53.39,53.39,0,0,1-11.1,9.22,53.88,53.88,0,0,1-28.8,8.13,54.85,54.85,0,0,1-15-2,56.85,56.85,0,0,1-13.33-5.64,53.53,53.53,0,0,1-11.23-8.74,54.32,54.32,0,0,1-8.57-11.36A58.49,58.49,0,0,1,307.08,132a56.22,56.22,0,0,1-2-14.95,61.09,61.09,0,0,1,7.12-28.67,59.37,59.37,0,0,1,8.35-11.89,55,55,0,0,1,11-9.35A52.65,52.65,0,0,1,344.71,61a50.44,50.44,0,0,1,14.95-2.19,65.15,65.15,0,0,1,23.12,3.93,49,49,0,0,1,29.28,28.89A62.82,62.82,0,0,1,416.12,114.75ZM377.31,117a24.63,24.63,0,0,0-1.09-7.3,20.05,20.05,0,0,0-3.19-6.29,16.37,16.37,0,0,0-5.2-4.46,14.56,14.56,0,0,0-7.12-1.7,17.4,17.4,0,0,0-7.34,1.49,16.81,16.81,0,0,0-5.55,4.06,17.82,17.82,0,0,0-3.54,6,21.66,21.66,0,0,0-1.22,7.3,26.62,26.62,0,0,0,1,7.34,21.8,21.8,0,0,0,3.15,6.64,16.71,16.71,0,0,0,5.2,4.81,13.89,13.89,0,0,0,7.21,1.84,16.46,16.46,0,0,0,7.39-1.62,16.67,16.67,0,0,0,5.55-4.37,20,20,0,0,0,3.5-6.34A22.84,22.84,0,0,0,377.31,117Z"/><path class="cls-3" d="M523.15,160.37l-15.51,51.41a45.49,45.49,0,0,0-6.78-2.86,67.82,67.82,0,0,0-7-1.86,63.62,63.62,0,0,0-17.28-1.31A43.37,43.37,0,0,0,461,209.58a34.54,34.54,0,0,0-12.25,9.53,36.1,36.1,0,0,0-7.15,15.79,33.34,33.34,0,0,0-.51,12.53,23,23,0,0,0,4,9.79,25.39,25.39,0,0,0,8.09,7.09,39.73,39.73,0,0,0,11.61,4.26,51,51,0,0,0,9.62,1.06,77.45,77.45,0,0,0,10.21-.5,85.09,85.09,0,0,0,10.09-1.76,88.58,88.58,0,0,0,9.25-2.71L489.7,322.54a81.19,81.19,0,0,1-11.35,2.2q-6,.75-12.18.93a110,110,0,0,1-12.24-.32,91.72,91.72,0,0,1-11.38-1.62,78.23,78.23,0,0,1-30.68-13.34,77.12,77.12,0,0,1-21-23.16,83.56,83.56,0,0,1-10.5-29.75,91.24,91.24,0,0,1,1-33.21,124,124,0,0,1,13.78-36.74,89.82,89.82,0,0,1,23.45-27A80.16,80.16,0,0,1,450.69,146q18.12-3.88,39.58.64a115.94,115.94,0,0,1,17.08,5A64.61,64.61,0,0,1,523.15,160.37Z"/><path class="cls-4" d="M637.33,58.81,623.6,325.86l-82.74,4.31L533,64.3Z"/><path class="cls-1" d="M763.58,167.93l-42,14.75-9.4-18.55-19.83,4.22-.17,20.58L646.94,194l10-123.22,47.84-12.73Zm-60.15-29.75-13.05-28.86V141Z"/><path class="cls-5" d="M897.75,245.1l-16.31,67.68-131.57-8.42,36.52-220,80.35,11.5L835,236.12Z"/></g></svg>